<svg width="1200" height="1200" xmlns="http://www.w3.org/2000/svg" xmlns:xlink="http://www.w3.org/1999/xlink" version="1.1"><g transform="scale(21.75138948495134) translate(-4.915555318196615, -4.91555722554525)">            <linearGradient id="SvgjsLinearGradient6256"><stop id="SvgjsStop6257" stop-color="#00ddff" offset="0"/><stop id="SvgjsStop6258" stop-color="#ff00d4" offset="1"/></linearGradient>            <g fill="url(#SvgjsLinearGradient6256)"><linearGradient id="SvgjsLinearGradient6256"><stop id="SvgjsStop6257" stop-color="#00ddff" offset="0"/><stop id="SvgjsStop6258" stop-color="#ff00d4" offset="1"/></linearGradient><path xmlns="http://www.w3.org/2000/svg" d="M53.343,28.516c-1.747,0-3.219,1.138-3.755,2.705l-7.491-10.938c-0.097-2.111-1.831-3.803-3.965-3.803  c-2.026,0-3.685,1.525-3.934,3.484h-3.396c-0.249-1.959-1.908-3.484-3.934-3.484c-2.134,0-3.868,1.691-3.965,3.802L15.412,31.22  c-0.537-1.567-2.008-2.705-3.754-2.705c-2.197,0-3.984,1.788-3.984,3.984c0,2.197,1.787,3.984,3.984,3.984  c1.747,0,3.218-1.137,3.754-2.704l7.491,10.938c0.097,2.111,1.831,3.803,3.965,3.803c2.025,0,3.685-1.525,3.934-3.484h3.396  c0.249,1.959,1.907,3.484,3.934,3.484c2.135,0,3.868-1.692,3.965-3.804l7.491-10.938c0.536,1.567,2.008,2.705,3.755,2.705  c2.196,0,3.983-1.787,3.983-3.984C57.326,30.303,55.539,28.516,53.343,28.516z M32.5,40.005l1.438,4.031h-2.876L32.5,40.005z   M32.475,25.066l-1.419-4.102h2.883L32.475,25.066z M31.062,32l1.398-3.918L33.816,32H31.062z M33.938,33L32.5,37.031L31.062,33  H33.938z M42.064,32c-0.249-1.959-1.907-3.484-3.933-3.484c-1.625,0-3.021,0.98-3.64,2.378l-1.495-4.318l1.563-4.38  c0.646,1.328,1.997,2.252,3.571,2.252c1.746,0,3.218-1.138,3.754-2.705L48.91,32H42.064z M26.869,24.448  c1.566,0,2.91-0.916,3.561-2.233l1.508,4.357l-1.497,4.197c-0.647-1.328-1.998-2.253-3.572-2.253c-2.025,0-3.684,1.525-3.933,3.484  H16.09l7.024-10.256C23.651,23.311,25.122,24.448,26.869,24.448z M22.936,33c0.249,1.959,1.908,3.484,3.933,3.484  c1.574,0,2.925-0.925,3.572-2.253l1.529,4.286l-1.529,4.287c-0.647-1.328-1.998-2.253-3.572-2.253c-1.747,0-3.218,1.138-3.754,2.705  L16.09,33H22.936z M38.132,40.552c-1.574,0-2.925,0.925-3.571,2.253l-1.529-4.287l1.529-4.286c0.646,1.328,1.997,2.253,3.571,2.253  c2.025,0,3.684-1.525,3.933-3.484h6.846l-7.024,10.257C41.35,41.689,39.879,40.552,38.132,40.552z"/></g>        </g></svg>